<?xml version="1.0" encoding="utf-8"?>
<!-- Generator: Adobe Illustrator 26.5.0, SVG Export Plug-In . SVG Version: 6.00 Build 0)  -->
<svg version="1.1" id="design" xmlns="http://www.w3.org/2000/svg" xmlns:xlink="http://www.w3.org/1999/xlink" x="0px" y="0px"
	 viewBox="0 0 543.8 157.6" style="enable-background:new 0 0 543.8 157.6;" xml:space="preserve">
<style type="text/css">
	.st0{fill:#FFFFFF;}
	.st1{fill:#585955;}
	.st2{fill:#23819F;}
	.st3{fill:#151B22;}
</style>
<g>
	<g>
		<g>
			<g>
				<path class="st3" d="M283.2,106.6c0.8,0,2.9,0.1,7.2,0.1c3.8,0,7.2-0.1,8.5-0.1c5.4,0,9.9,1.1,9.9,6.4c0,2.7-2,4.9-4.8,5.9
					c-0.1,0-0.1,0.2,0,0.3c3.7,1,6.9,2.8,6.9,7c0,3.8-2,6.5-6.1,8.2c-2.2,0.9-5.6,1.4-8.4,1.4c-2.1,0-10.4-0.2-13.7-0.2
					c-0.2-0.4-0.3-2,0-2.3c1.6-0.2,2.7-0.3,3.5-0.7c0.7-0.3,1-0.9,1.1-2.3c0.1-1.2,0.1-6.2,0.1-9.6c0-5,0-6.7-0.1-9.3
					c0-1.2-0.2-1.8-1.3-2.1c-0.9-0.3-2.1-0.5-2.7-0.5C282.9,108.5,282.9,106.7,283.2,106.6z M303.2,127.4c0-3.9-2.5-6.2-7.2-6.2
					c-0.1,0-1,0-1.5,0c-0.1,0-0.2,0.1-0.2,0.3c0,3.5,0,7.3,0.1,9.1c0,0.6,0.5,1.3,0.8,1.6c0.8,0.8,2.4,1,3.1,1
					C301.1,133.3,303.2,131.3,303.2,127.4z M294.8,109.3c-0.1,0-0.3,0.4-0.4,0.6c-0.1,0.5-0.1,5.5-0.1,8.4c0,0.1,0.2,0.3,0.3,0.3
					c0.4,0,0.9,0,2,0c1.8,0,3.3-0.1,3.8-0.4c0.9-0.6,1.6-1.9,1.6-3.6c0-3.2-1.7-5.5-5.9-5.5C295.7,109.1,295.2,109.2,294.8,109.3z"
					/>
				<path class="st3" d="M324.9,129.2c2.8-6.5,5.9-14.9,7.2-18.3c0.5-1.1,1.1-3.3,1.3-4.3c0.9,0.1,1.8,0.1,2.7,0.1
					c1,0,1.9,0,2.7-0.1c0.3,0.9,0.7,2.4,1,3.2c1.8,4.7,5.2,14,7,18.3c1.7,4.1,1.8,4.5,5.8,5.1c0.2,0.3,0,2-0.2,2.3
					c-1.2,0-3.2-0.1-7.4-0.1c-3.6,0-5.8,0.1-7.6,0.1c-0.1-0.4-0.2-2,0-2.3c1.1-0.2,2-0.4,2.5-0.7c0.4-0.3,0.5-0.7,0.4-0.9
					c-0.1-1.1-1.1-3.9-1.7-5.2c-0.1-0.1-0.3-0.3-0.6-0.3c-0.9,0-2.8,0-4.1,0c-1.9,0-2.8,0-3.5,0c-0.2,0-0.5,0.2-0.6,0.5
					c-0.8,2.3-1.3,3.8-1.3,4.5c0,0.8,0.2,1.3,1.3,1.6c0.9,0.2,1.6,0.3,2.5,0.5c0.1,0.3,0,1.9-0.1,2.3c-1.1,0-3.2-0.1-6.4-0.1
					c-1.8,0-4.3,0.1-6,0.1c-0.2-0.4-0.2-1.8,0-2.3C323,132.7,323.7,132.2,324.9,129.2z M333.9,114.1c-0.9,2.4-2,5.9-2.8,8.2
					c0,0.1,0,0.4,0.1,0.4c0.6,0,1.5,0,2.8,0c1.6,0,2.5,0,2.8-0.1c0.1,0,0.1-0.2,0.1-0.2c-0.2-0.7-1.9-5.7-3-8.4
					C334,114.1,333.9,114,333.9,114.1z"/>
				<path class="st3" d="M361.1,106.6c1.6,0,3.5,0.1,7.2,0.1c1.6,0,3.4,0,4.3-0.1c0.4,0.9,0.9,1.6,1.9,2.8
					c4,4.9,10.2,12.8,13.2,16.1c0.1,0,0.2,0,0.3,0c0-6.1,0-9.8-0.3-13.4c-0.1-1.6-0.6-2.4-2.2-2.7c-1.1-0.2-2-0.4-3.1-0.5
					c-0.2-0.2-0.1-2.2,0-2.3c1,0,3.2,0.1,6.8,0.1c3.5,0,5.2-0.1,6.3-0.1c0.2,0.2,0.2,2.1,0,2.3c-0.6,0.1-1.1,0.2-1.9,0.4
					c-1.3,0.4-2,0.6-2.2,3c-0.3,3.7-0.4,10.6-0.4,16.8c0,2.2,0,4.9,0.1,6.7c-0.8-0.1-4.5,0-5.3,0c-3.6-4.6-12.2-16.1-16.4-21.3
					c-0.2-0.2-0.3,0-0.3,0c0,5.2,0,12.8,0.1,14.9c0.1,2.1,0.9,2.9,2.2,3.2c0.8,0.2,1.7,0.3,3,0.6c0.2,0.2,0.2,1.8-0.1,2.3
					c-2.2,0-4.4-0.1-6.6-0.1c-2,0-4.7,0.1-6.8,0.1c-0.2-0.3-0.1-2.1,0-2.3c1.1-0.2,1.9-0.3,3-0.7c1.1-0.4,1.5-1.5,1.6-2.7
					c0.3-2.6,0.4-12.2,0.4-17.2c0-1-0.4-2.5-1.6-2.9c-0.9-0.3-1.8-0.7-3.3-0.8C360.9,108.7,360.9,106.8,361.1,106.6z"/>
				<path class="st3" d="M417.9,130.6c0,1,0.5,1.7,1.3,1.9c0.8,0.2,1.8,0.4,3.1,0.7c0.2,0.3-0.1,2-0.3,2.3c-2.5,0-3.7-0.1-7.9-0.1
					c-5,0-5.9,0.1-7.7,0.1c-0.2-0.4-0.2-1.9,0-2.3c1-0.2,2.2-0.4,2.9-0.6c1.2-0.3,1.3-0.8,1.3-2.8c0-1.8,0.1-5.4,0.1-9.5
					c0-5.3,0-7.4,0-9c0-1.1-0.4-1.7-1.1-1.9c-0.6-0.2-1.8-0.4-2.9-0.6c-0.4-0.3-0.2-2,0-2.3c0.9,0,2.8,0.1,7.4,0.1
					c2.5,0,4.8-0.1,7.3-0.1c0.1,0.4,0.2,1.9,0,2.3c-1.1,0.2-1.4,0.2-2.3,0.5c-0.8,0.3-1.1,0.6-1.1,2c0,2.4-0.1,6.8-0.1,9.8
					C417.8,127,417.8,128.9,417.9,130.6z M425,119.3c2.2,3.6,7.2,9.6,9.7,12c0.5,0.5,1.4,1.3,2,1.5c0.9,0.3,2.3,0.5,3,0.6
					c0.2,0.4,0,1.9-0.3,2.3c-2,0.2-9.3,0.3-10.7-0.3c-0.9-0.4-1.7-1.3-2.3-2c-2.5-2.8-5.4-7.1-7.4-10.1c0-0.1-0.6-0.7-0.9-0.9
					c0-0.2,0-1.1,0.2-1.1c2.2-1,3.8-2.4,7.9-7.9c1.3-1.8,1.5-2.6,1.5-3c0-0.3-0.2-0.7-0.8-0.9c-0.6-0.2-1.4-0.3-2.7-0.5
					c-0.2-0.5-0.2-2,0-2.3c1,0,3,0.1,6.3,0.1c4.1,0,5.2-0.1,6.6-0.1c0.3,0.3,0.3,1.9,0,2.3c-2.9,0.4-4.3,0.9-6,2.9
					c-2.1,2.5-4.5,5.4-6.1,7.2V119.3z"/>
			</g>
		</g>
		<g>
			<path class="st3" d="M197.9,80.6c2.4,1.8,5.9,2.6,8.3,2.6c3.9,0,8.1-2,8.1-7.1c0-4.3-1.9-6.7-11.1-11.9
				c-6.9-3.9-14.5-8-14.5-18.2c0-10.8,8.9-16.5,19.4-16.5c7.3,0,11,1.2,16,1.7c-0.7,3.3-1.3,8.5-1.5,13.8c-0.5,0.6-3.7,0.6-4.2,0.1
				c-0.9-5.2-2.1-7.8-4-9.3c-1.9-1.4-4.2-2.1-7-2.1c-5,0-7.9,3.7-7.9,7.6c0,4.3,2.1,6.3,6,8.7c4,2.3,7.1,3.9,11,6.1
				c6.2,3.7,9.4,7.5,9.4,14.3c0,9.2-7.7,17.5-22.1,17.5c-6.5,0-11.9-1.9-14.7-3.1c-1-1.3-3.3-11.8-3.3-15.2c0.4-0.7,3.5-1.6,4.2-1.4
				C192.3,74.1,194.6,78.2,197.9,80.6z"/>
			<path class="st3" d="M274,67.2c0,7.6-3.3,13.3-8.3,16.5c-3.2,2.1-8.5,3.8-12.8,3.8c-14.2,0-20-9.1-20-19.9
				c0-6.9,3.3-12.4,8.2-15.6c3.2-2.1,8-3.9,13.2-3.9C267.1,48,274,56.7,274,67.2z M249,53.7c-2.3,1.3-4,4.3-4,11
				c0,11.8,4.3,18.1,9.9,18.1c1.3,0,2.6-0.5,3.5-1.2c2-1.6,3.3-4.9,3.3-11.8c0-10.9-4-17-9.9-17C250.7,52.8,249.8,53.1,249,53.7z"/>
			<path class="st3" d="M278.8,50.1c4.1-0.2,12.5-0.5,16.5-1.5c-0.3,3.5-0.5,8.2-0.5,18c0,4.4,0,7.2,0.5,9c0.5,2,2.4,3.9,6.1,3.9
				c2.2,0,4.2-0.9,5.3-2c0.5-0.5,0.6-0.8,0.6-1.3c0.2-1.1,0.4-2.6,0.1-18.2c0-1.1-0.4-2.4-1.6-2.8c-1.3-0.5-3.1-0.7-5.2-1.1
				c-0.2-1.2,0-3.5,0.5-4.1c7.1,0,15.2-0.8,17.7-1.4c0,0.5-0.1,3.8-0.1,8.1l-0.2,20c0.1,1.4,0.5,2.4,1.5,2.6
				c1.4,0.2,2.9,0.1,4.3,0.1c0.1,0.9-0.2,3.6-0.6,4.2c-3.6,1.8-13.7,3.9-15.2,3.9c-0.2,0-0.5-0.5-0.6-0.7c-0.3-0.9-0.5-3.9-0.5-4.8
				c0-0.2-0.3-0.4-0.5-0.3c-4.3,3.5-8.7,5.5-12.4,5.5c-7.9,0-10.6-5.5-10.8-11.8c-0.1-4.5,0-13,0-17.4c-0.1-1.6-0.4-2.7-1.7-3.2
				c-0.7-0.2-2.4-0.5-3.8-0.8C278,53.2,278.3,50.7,278.8,50.1z"/>
			<path class="st3" d="M333.7,41.1c2-0.7,7.5-3.5,9-4.6c0.4-0.2,2.2-0.4,2.4-0.3c-0.3,2.4-0.5,7.4-0.5,12.6c0,0.3,0.2,0.5,0.4,0.5
				c1.9,0,8.7-0.3,11.2-0.4c-0.4,1.6-1,5.2-1.1,6.8c-2.4-0.1-6.8-0.1-10.2-0.1c-0.1,0-0.4,0.4-0.4,0.5v12.9c0,4.1,0,5.2,0.4,7.1
				c0.5,2.2,2.6,3.8,5.3,3.8c2.3,0,3.5-0.4,5.5-1.5c0.3,0.5,0,3.3-0.3,4.3c-2.4,2.9-6.3,4.6-10.9,4.6c-4.3,0-7.8-1.5-9.6-4.7
				c-1.4-2.4-1.4-4.7-1.4-9.8c0-4.9,0.1-12.7,0.1-16.5c0-0.3-0.2-0.6-0.5-0.7c-1.5-0.2-3.4-0.3-5-0.4c0-0.9,0.5-3.5,1-4.6
				c1.3-0.2,3.3-0.8,4.1-1.1c0.1,0,0.4-0.4,0.5-0.8V41.1z"/>
			<path class="st3" d="M377.7,52.8c0,0.2,0.3,0.3,0.5,0.2c4-2.8,8-5,11.8-5c7.7,0,12.4,5.6,12.4,15.2c0,5-0.1,12.8,0.1,16.2
				c0,0.6,0.4,1.5,0.9,1.8c1.1,0.5,3.1,1.1,4.6,1.3c0.5,0.5,0.2,3.7-0.5,4.2c-1.3,0-4.9-0.3-10.8-0.3c-3.2,0-7.7,0.1-9.8,0.3
				c-0.5-0.6-0.5-3.6,0-4.2c0.9-0.1,2.1-0.4,2.6-0.5c1.4-0.4,1.6-1.3,1.7-4.1c0.2-4.2,0.3-13.4-0.3-16.8c-0.5-3-2.9-5.8-7.3-5.8
				c-1.4,0-3.6,0.5-5.1,1.4c-0.4,0.2-0.7,0.8-0.7,1.4c0,6.9-0.1,16.6,0.1,19.4c0.2,2.7,0,3.8,1.8,4.4c0.9,0.2,1.9,0.5,3.4,0.6
				c0.6,0.5,0.3,3.5-0.3,4.2c-2.6,0-5.5-0.3-11-0.3c-5.7,0-8.5,0.3-10.2,0.3c-0.7-0.7-0.6-3.8-0.1-4.2c1.6-0.3,2.6-0.5,3.3-0.8
				c1.7-0.5,1.8-1.9,1.9-4.9c0.1-3.2,0.1-9,0.1-13.8c0-19.3,0-22.7-0.3-25.5c-0.1-1.4-0.4-2.4-1.6-2.8c-1.2-0.4-2.8-0.5-4.6-0.8
				c-0.5-0.5-0.5-3.5,0.1-3.9c6.6-0.4,14.7-2.2,17.5-3.3c0.5,0.2,1.1,1.5,1,2.1c-0.9,1.7-1.2,2.8-1.3,8.7L377.7,52.8z"/>
			<path class="st3" d="M446.2,76.2c0.1,1-0.5,3.3-0.6,3.7c-3.8,4.8-11.1,7.6-16.6,7.6c-5.6,0-9.3-1.7-12.1-4.4
				c-4.1-3.7-5.6-9.8-5.6-14.9c0-7.9,3.6-13.7,8.5-16.8c3.2-1.9,7.2-3.3,11-3.3c10.4,0,13.9,8.4,14.7,13.6c0.1,0.5,1,1.3,1.6,1.4
				c0.1,0.5-0.5,2.9-0.9,3.3c-3.1,1-16,1.7-23.3,1.9c-0.3,0.1-0.5,0.7-0.5,1c0.3,2.4,1.5,5.2,3.8,7c2.3,2,4.7,2.8,8.6,2.8
				c4.1,0,7.2-1.2,10.9-3.6C445.9,75.5,446.2,75.8,446.2,76.2z M422.3,62.4c0,0.2,0.2,0.7,0.6,0.7c2.8,0.1,9.6,0,11.1-0.3
				c0.4-0.1,0.6-0.5,0.7-0.8c-0.5-5.5-2.8-9.5-6.6-9.5C424.6,52.6,422.4,57.1,422.3,62.4z"/>
			<path class="st3" d="M485,50.8c0.2,0.4,0.1,1.4,0,1.8c-0.3,1.4-2.5,6.6-3.9,8.2c-0.4,0.3-1.2,0.5-1.4,0.4c-2-2.1-4.5-3.7-7.1-3.7
				c-1,0-2.2,0.6-3.1,1.6c-0.2,0.3-0.6,0.9-0.6,1.7c0,5.3,0.1,15.6,0.2,17c0.1,2.5,0.5,3.3,2.4,3.8c1.6,0.4,3.3,0.6,5.5,0.9
				c0.3,0.5,0.1,3.5-0.5,4.2c-1.4,0-6.6-0.3-13.4-0.3c-4.7,0-8,0.3-10.7,0.3c-0.3-0.6-0.5-3.7,0-4.2c1.4-0.2,2.6-0.4,3.8-0.7
				c0.8-0.4,1.4-1.1,1.5-2.4c0.2-1.7,0.3-8.5,0.2-14c0-2.9,0-5.4-0.2-6.6c-0.1-1.4-0.9-2.4-5.2-4c-0.1-0.7,0.2-2.9,0.5-3.2
				c3-0.3,11.6-2.2,14.8-3.8c0.3,0,0.6,0.3,0.6,0.5c0,0.8-0.2,5.2-0.2,6.4c0,0.5,0.4,0.5,0.5,0.3c1.9-2.1,3.7-3.9,5.7-5.2
				c1.3-1,3.1-1.7,4.9-1.7C482,48,484.2,49,485,50.8z"/>
			<path class="st3" d="M492.7,81.9c1.4-0.3,1.8-1.7,2-3.3c0.1-2.7,0.2-9.3,0.2-14.6c0-2.4,0-4.4-0.2-5.7c-0.2-1-1.4-2.1-4.7-3.4
				c-0.2-0.8,0.2-2.9,0.5-3.3c5.2-0.6,11.7-2.6,14.5-3.8c0.2,0.1,0.5,0.5,0.5,0.7c0.1,0.5,0.1,3.3,0.1,4.9c0,0.3,0.4,0.4,0.5,0.3
				c4.1-3.2,8.5-5.6,11.8-5.6c4.3,0,7.3,1.8,9.7,5c1.9,2.8,2.6,6.6,2.6,10.9c0,6.2,0,12.5,0.1,15.6c0,0.7,0.4,1.4,0.7,1.5
				c1.5,0.8,3.1,1.1,4.9,1.4c0.4,0.6,0.1,3.5-0.5,4.2c-1.4,0-4.9-0.3-10.9-0.3c-4.7,0-6.7,0.2-9.6,0.3c-0.3-0.7-0.5-3.6,0-4.2
				c1.2-0.2,2.4-0.5,3-0.7c0.9-0.4,1.2-1.2,1.2-2.5c0.2-3.8,0.4-14.2-0.3-17.8c-0.2-1.5-1.1-3.3-2.6-4.4c-1.2-0.9-2.7-1.4-4.5-1.4
				c-1.4,0-3.6,0.6-5.2,1.7c-0.5,0.3-0.7,1.3-0.7,2c0,6.3,0,14.1,0.2,19.8c0,1.9,0.5,2.4,1.8,2.8c1,0.3,1.4,0.4,2.9,0.5
				c0.4,0.5,0.2,3.5-0.4,4.2c-2.9-0.1-6-0.3-10.3-0.3c-5.5,0-8.8,0.2-10.4,0.3c-0.5-0.7-0.5-3.7,0-4.2
				C491,82.3,491.7,82.1,492.7,81.9z"/>
		</g>
	</g>
	<g>
		<path class="st3" d="M129.3,31.8c-12.6-12.6-29.3-19.5-47-19.5c0,0,0,0,0,0c-17.8,0-34.4,6.9-47,19.5C22.6,44.3,15.7,61,15.7,78.7
			c0,36.7,29.8,66.5,66.5,66.6c0,0,0,0,0,0c36.7,0,66.5-29.8,66.5-66.5C148.7,61.1,141.8,44.3,129.3,31.8z M100.8,138.6
			c-0.7,0.2-1.5,0.3-2.3,0.3h0c-6.2,0-11.3-5-11.3-11.3v-23.2c0-10.3,13.1-19.5,17-21.8c0.2-0.1,0.1-0.4-0.1-0.4
			c-8,0.7-13.7,3.9-15.2,4.8c-0.1,0.1-0.3,0-0.3-0.2c0.3-1.1,1.1-4.3,2.6-7.3c0.1-0.2-0.1-0.4-0.3-0.3c-4,2.4-7,5.8-7.8,6.7
			c-0.1,0.1-0.2,0.1-0.3,0c-0.6-1.4-3.7-8.4-7.4-11.7c-0.2-0.1-0.4,0-0.4,0.2c0.8,3.6,1.8,9.7,1.5,13.9c0,0.1-0.1,0.2-0.3,0.1
			c-1.5-0.9-9.7-5.5-15.9-6.5c-0.2,0-0.4,0.3-0.2,0.4c3.3,2.4,16.9,12.3,16.9,22.3v23.2c0,6.2-5,11.3-11.3,11.3
			c-0.8,0-1.6-0.1-2.3-0.3C47.3,133.5,33.9,122,26.3,107c-0.3-0.6-0.6-1.1-0.8-1.7c-0.3-0.7-0.7-1.4-1-2.2c0,0,0-0.1-0.1-0.1
			c-3.1-7.5-4.9-15.7-4.9-24.3c0-16.7,6.5-32.5,18.4-44.3c11.8-11.8,27.5-18.3,44.3-18.3c0,0,0,0,0,0c16.7,0,32.5,6.5,44.3,18.4
			c11.8,11.8,18.3,27.6,18.3,44.3C144.8,106.9,126.3,130.6,100.8,138.6z"/>
		<path class="st3" d="M134.9,26.1C120.9,12,102.1,4.3,82.2,4.3c0,0,0,0,0,0C41.1,4.3,7.7,37.7,7.7,78.7c0,41.1,33.4,74.5,74.5,74.6
			c0,0,0,0,0,0c41.1,0,74.5-33.4,74.5-74.5C156.7,58.9,149,40.2,134.9,26.1z M82.2,149.4C82.2,149.4,82.2,149.4,82.2,149.4
			c-39,0-70.6-31.7-70.6-70.7c0-38.9,31.7-70.6,70.6-70.6c0,0,0,0,0,0c38.9,0,70.6,31.7,70.6,70.7
			C152.8,117.7,121.1,149.4,82.2,149.4z"/>
		<path class="st3" d="M109.8,58.4c0-0.1-0.1-0.1-0.2-0.2c-0.9-0.1-6.1-0.4-11,5.4c-4.9,5.8-3.7,10.8-3.5,11.7
			c0,0.1,0.1,0.1,0.2,0.2c0.9,0.1,6.2,0.3,11-5.4C111.3,64.4,110.1,59.3,109.8,58.4z"/>
		<path class="st3" d="M83.4,55.1c-2.8,7-0.1,11.4,0.4,12.1c0.1,0.1,0.1,0.1,0.2,0.1c0.9-0.2,5.9-1.5,8.7-8.5
			c2.8-6.9,0.1-11.4-0.4-12.1c-0.1-0.1-0.1-0.1-0.2-0.1C91.2,46.8,86.2,48.2,83.4,55.1z"/>
		<path class="st3" d="M121.3,82.4c-6.8-3.2-11.3-0.7-12.1-0.3c-0.1,0-0.1,0.1-0.1,0.2c0.1,0.9,1.2,6,7.9,9.2
			c6.8,3.2,11.3,0.7,12.1,0.3c0.1,0,0.1-0.1,0.1-0.2C129.1,90.6,128.1,85.5,121.3,82.4z"/>
		<path class="st3" d="M61.9,38c-0.1,0-0.2,0.1-0.2,0.2c-0.2,0.9-0.9,6,4.4,11.3c5.3,5.3,10.4,4.6,11.3,4.4c0.1,0,0.2-0.1,0.2-0.2
			c0.2-0.9,0.9-6-4.4-11.3C68,37.1,62.8,37.8,61.9,38z"/>
		<path class="st3" d="M54.7,58.3c-0.1,0-0.2,0.1-0.2,0.2c-0.3,0.9-1.4,5.9,3.5,11.7c4.9,5.8,10.1,5.5,11,5.4c0.1,0,0.2-0.1,0.2-0.2
			c0.3-0.9,1.4-5.9-3.5-11.7C60.9,57.9,55.7,58.2,54.7,58.3z"/>
		<path class="st3" d="M43.1,82.4c-6.8,3.2-7.8,8.3-7.9,9.2c0,0.1,0,0.2,0.1,0.2c0.8,0.5,5.3,2.9,12.1-0.3c6.8-3.2,7.8-8.2,7.9-9.2
			c0-0.1,0-0.2-0.1-0.2C54.4,81.6,49.8,79.2,43.1,82.4z"/>
	</g>
</g>
</svg>
